<svg width="21" height="20" viewBox="0 0 21 20" fill="none" xmlns="http://www.w3.org/2000/svg">
<g clip-path="url(#clip0_10907_519)">
<path d="M16.957 7.5H9.45695C8.53648 7.5 7.79028 8.24619 7.79028 9.16667V16.6667C7.79028 17.5871 8.53648 18.3333 9.45695 18.3333H16.957C17.8774 18.3333 18.6236 17.5871 18.6236 16.6667V9.16667C18.6236 8.24619 17.8774 7.5 16.957 7.5Z" stroke="#3485FF" stroke-width="2" stroke-linecap="round" stroke-linejoin="round"/>
<path d="M4.45703 12.5H3.6237C3.18167 12.5 2.75775 12.3244 2.44519 12.0118C2.13263 11.6992 1.95703 11.2753 1.95703 10.8333V3.33329C1.95703 2.89127 2.13263 2.46734 2.44519 2.15478C2.75775 1.84222 3.18167 1.66663 3.6237 1.66663H11.1237C11.5657 1.66663 11.9896 1.84222 12.3022 2.15478C12.6148 2.46734 12.7904 2.89127 12.7904 3.33329V4.16663" stroke="#3485FF" stroke-width="2" stroke-linecap="round" stroke-linejoin="round"/>
</g>
<defs>
<clipPath id="clip0_10907_519">
<rect width="20" height="20" fill="white" transform="translate(0.290283)"/>
</clipPath>
</defs>
</svg>
