<svg width="150" height="135" viewBox="0 0 150 135" fill="none" xmlns="http://www.w3.org/2000/svg">
<circle opacity="0.1" cx="81.7903" cy="67.5" r="67.5" fill="url(#paint0_linear_37_1686)"/>
<path fill-rule="evenodd" clip-rule="evenodd" d="M76.7131 66.5013C64.9336 66.5013 55.3843 74.8799 55.3843 85.2156V85.2633C55.3843 95.5989 64.9336 103.978 76.7131 103.978H108.167C109.342 103.978 110.495 103.894 111.618 103.734L117.712 108.898C117.877 109.039 118.099 109.117 118.329 109.117C118.82 109.117 119.218 108.768 119.218 108.338L119.218 101.273C125.379 97.9914 129.496 92.0491 129.496 85.2633V85.2156C129.496 74.8799 119.946 66.5013 108.167 66.5013H76.7131Z" fill="#1D4885"/>
<path d="M81.8867 21.6649H36.9756C20.1476 21.6649 6.50586 33.6344 6.50586 48.3996C6.50586 63.1648 20.1476 75.1344 36.9756 75.1344H81.8867C98.7147 75.1344 112.356 63.1648 112.356 48.3996C112.356 33.6344 98.7147 21.6649 81.8867 21.6649Z" fill="url(#paint1_linear_37_1686)"/>
<path fill-rule="evenodd" clip-rule="evenodd" d="M21.1853 67.3577V81.3535C21.1853 81.9688 21.7537 82.4675 22.4549 82.4675C22.7837 82.4675 23.0998 82.3555 23.3364 82.1552L35.0581 72.2316L21.1853 67.3577Z" fill="url(#paint2_linear_37_1686)"/>
<path d="M39.0387 51.7415C41.7557 51.7415 43.9583 49.8089 43.9583 47.4249C43.9583 45.041 41.7557 43.1084 39.0387 43.1084C36.3217 43.1084 34.1191 45.041 34.1191 47.4249C34.1191 49.8089 36.3217 51.7415 39.0387 51.7415Z" fill="white"/>
<path d="M59.193 51.7415C61.91 51.7415 64.1126 49.8089 64.1126 47.4249C64.1126 45.041 61.91 43.1084 59.193 43.1084C56.476 43.1084 54.2734 45.041 54.2734 47.4249C54.2734 49.8089 56.476 51.7415 59.193 51.7415Z" fill="white"/>
<path d="M79.8237 51.7415C82.5407 51.7415 84.7433 49.8089 84.7433 47.4249C84.7433 45.041 82.5407 43.1084 79.8237 43.1084C77.1066 43.1084 74.9041 45.041 74.9041 47.4249C74.9041 49.8089 77.1066 51.7415 79.8237 51.7415Z" fill="white"/>
<defs>
<linearGradient id="paint0_linear_37_1686" x1="175.873" y1="-204.224" x2="74.6967" y2="149.495" gradientUnits="userSpaceOnUse">
<stop stop-color="#5498FF"/>
<stop offset="0.515625" stop-color="#428EFF"/>
<stop offset="1" stop-color="#297FFF"/>
</linearGradient>
<linearGradient id="paint1_linear_37_1686" x1="133.2" y1="-59.222" x2="111.749" y2="89.2381" gradientUnits="userSpaceOnUse">
<stop stop-color="#5498FF"/>
<stop offset="0.515625" stop-color="#428EFF"/>
<stop offset="1" stop-color="#297FFF"/>
</linearGradient>
<linearGradient id="paint2_linear_37_1686" x1="37.7898" y1="44.5" x2="25.6273" y2="83.5398" gradientUnits="userSpaceOnUse">
<stop stop-color="#5498FF"/>
<stop offset="0.515625" stop-color="#428EFF"/>
<stop offset="1" stop-color="#297FFF"/>
</linearGradient>
</defs>
</svg>
